<mxfile host="app.diagrams.net" modified="2023-07-16T01:23:31.199Z" agent="Mozilla/5.0 (Macintosh; Intel Mac OS X 10_15_7) AppleWebKit/537.36 (KHTML, like Gecko) Chrome/114.0.0.0 Safari/537.36" version="21.6.2" etag="5_OzrE2thAGU_PnmJbOG" type="github">
  <diagram name="第 1 页" id="pL6o1hPsilaNsxKVQC7H">
    <mxGraphModel>
      <root>
        <mxCell id="0" />
        <mxCell id="1" parent="0" />
      </root>
    </mxGraphModel>
  </diagram>
</mxfile>
